HIERARCHY
ROOT Hips
{
	OFFSET 0.00 0.00 0.00
	CHANNELS 6 Xposition Yposition Zposition Zrotation Yrotation Xrotation
	JOINT Spine
	{
		OFFSET	0.0000	12.9474	1.3069
		CHANNELS 3 Zrotation Yrotation Xrotation
		JOINT Spine1
		{
			OFFSET	0.0000	11.6502	0.0897
			CHANNELS 3 Zrotation Yrotation Xrotation
			JOINT Spine2
			{
				OFFSET	0.0000	11.8996	-0.0200
				CHANNELS 3 Zrotation Yrotation Xrotation
				JOINT Neck
				{
					OFFSET	0.0000	29.8625	-6.8568
					CHANNELS 3 Zrotation Yrotation Xrotation
					JOINT Head
					{
						OFFSET	0.0000	15.8127	4.5046
						CHANNELS 3 Zrotation Yrotation Xrotation
						End Site
						{
							OFFSET 0.0000 16.9142 8.5489
						}
					}
				}
				JOINT LeftShoulder
				{
					OFFSET	15.6932	30.5276	-14.8855
					CHANNELS 3 Zrotation Yrotation Xrotation
					JOINT LeftArm
					{
						OFFSET	15.1106	-10.2541	-0.0017
						CHANNELS 3 Zrotation Yrotation Xrotation
						JOINT LeftForeArm
						{
							OFFSET	31.4047	-20.2208	-1.5857
							CHANNELS 3 Zrotation Yrotation Xrotation
							JOINT LeftHand
							{
								OFFSET	33.6957	-19.2580	15.6991
								CHANNELS 3 Zrotation Yrotation Xrotation
								JOINT LeftHandMiddle1
								{
									OFFSET	11.0571	-10.4817	9.4547
									CHANNELS 3 Zrotation Yrotation Xrotation
									JOINT LeftHandMiddle2
									{
										OFFSET	3.4215	-5.0087	3.1670
										CHANNELS 3 Zrotation Yrotation Xrotation
										JOINT LeftHandMiddle3
										{
											OFFSET	1.8148	-4.7192	2.5351
											CHANNELS 3 Zrotation Yrotation Xrotation
											End Site
											{
												OFFSET 0.5564 -3.7387 2.3634
											}
										}
									}
								}
								JOINT LeftHandThumb1
								{
									OFFSET	-1.0031	-1.2668	10.5842
									CHANNELS 3 Zrotation Yrotation Xrotation
									JOINT LeftHandThumb2
									{
										OFFSET	0.2584	0.1803	6.9748
										CHANNELS 3 Zrotation Yrotation Xrotation
										JOINT LeftHandThumb3
										{
											OFFSET	0.4558	-1.3006	4.2279
											CHANNELS 3 Zrotation Yrotation Xrotation
											End Site
											{
												OFFSET 0.3543 -2.2515 4.8270
											}
										}
									}
								}
								JOINT LeftHandIndex1
								{
									OFFSET	10.1078	-6.3687	14.1094
									CHANNELS 3 Zrotation Yrotation Xrotation
									JOINT LeftHandIndex2
									{
										OFFSET	3.1194	-3.8277	3.9230
										CHANNELS 3 Zrotation Yrotation Xrotation
										JOINT LeftHandIndex3
										{
											OFFSET	1.3756	-4.1963	2.9070
											CHANNELS 3 Zrotation Yrotation Xrotation
											End Site
											{
												OFFSET 0.6727 -3.7890 2.5988
											}
										}
									}
								}
								JOINT LeftHandRing1
								{
									OFFSET	10.0847	-13.6899	4.3344
									CHANNELS 3 Zrotation Yrotation Xrotation
									JOINT LeftHandRing2
									{
										OFFSET	3.2413	-5.1039	1.8840
										CHANNELS 3 Zrotation Yrotation Xrotation
										JOINT LeftHandRing3
										{
											OFFSET	1.5323	-5.0397	1.9270
											CHANNELS 3 Zrotation Yrotation Xrotation
											End Site
											{
												OFFSET 0.8809 -4.1420 1.4919
											}
										}
									}
								}
								JOINT LeftHandPinky1
								{
									OFFSET	9.0408	-16.1777	-0.5730
									CHANNELS 3 Zrotation Yrotation Xrotation
									JOINT LeftHandPinky2
									{
										OFFSET	2.5791	-4.9057	0.6134
										CHANNELS 3 Zrotation Yrotation Xrotation
										JOINT LeftHandPinky3
										{
											OFFSET	0.8052	-3.7871	1.3188
											CHANNELS 3 Zrotation Yrotation Xrotation
											End Site
											{
												OFFSET 0.2188 -3.8976 1.6089
											}
										}
									}
								}
							}
						}
					}
				}
				JOINT RightShoulder
				{
					OFFSET	-15.6932	30.5276	-14.8855
					CHANNELS 3 Zrotation Yrotation Xrotation
					JOINT RightArm
					{
						OFFSET	-15.1106	-10.2541	-0.0017
						CHANNELS 3 Zrotation Yrotation Xrotation
						JOINT RightForeArm
						{
							OFFSET	-31.4047	-20.2208	-1.5857
							CHANNELS 3 Zrotation Yrotation Xrotation
							JOINT RightHand
							{
								OFFSET	-33.6957	-19.2580	15.6991
								CHANNELS 3 Zrotation Yrotation Xrotation
								JOINT RightHandThumb1
								{
									OFFSET	1.0031	-1.2668	10.5842
									CHANNELS 3 Zrotation Yrotation Xrotation
									JOINT RightHandThumb2
									{
										OFFSET	-0.2584	0.1803	6.9748
										CHANNELS 3 Zrotation Yrotation Xrotation
										JOINT RightHandThumb3
										{
											OFFSET	-0.4558	-1.3006	4.2279
											CHANNELS 3 Zrotation Yrotation Xrotation
											End Site
											{
												OFFSET -0.3543 -2.2515 4.8270
											}
										}
									}
								}
								JOINT RightHandIndex1
								{
									OFFSET	-10.1078	-6.3687	14.1094
									CHANNELS 3 Zrotation Yrotation Xrotation
									JOINT RightHandIndex2
									{
										OFFSET	-3.1194	-3.8277	3.9230
										CHANNELS 3 Zrotation Yrotation Xrotation
										JOINT RightHandIndex3
										{
											OFFSET	-1.3756	-4.1963	2.9070
											CHANNELS 3 Zrotation Yrotation Xrotation
											End Site
											{
												OFFSET -0.6727 -3.7890 2.5988
											}
										}
									}
								}
								JOINT RightHandMiddle1
								{
									OFFSET	-11.0571	-10.4817	9.4547
									CHANNELS 3 Zrotation Yrotation Xrotation
									JOINT RightHandMiddle2
									{
										OFFSET	-3.4215	-5.0087	3.1670
										CHANNELS 3 Zrotation Yrotation Xrotation
										JOINT RightHandMiddle3
										{
											OFFSET	-1.8148	-4.7192	2.5351
											CHANNELS 3 Zrotation Yrotation Xrotation
											End Site
											{
												OFFSET -0.5564 -3.7387 2.3634
											}
										}
									}
								}
								JOINT RightHandRing1
								{
									OFFSET	-10.0847	-13.6899	4.3344
									CHANNELS 3 Zrotation Yrotation Xrotation
									JOINT RightHandRing2
									{
										OFFSET	-3.2413	-5.1039	1.8840
										CHANNELS 3 Zrotation Yrotation Xrotation
										JOINT RightHandRing3
										{
											OFFSET	-1.5323	-5.0397	1.9270
											CHANNELS 3 Zrotation Yrotation Xrotation
											End Site
											{
												OFFSET -0.8809 -4.1420 1.4919
											}
										}
									}
								}
								JOINT RightHandPinky1
								{
									OFFSET	-9.0408	-16.1777	-0.5730
									CHANNELS 3 Zrotation Yrotation Xrotation
									JOINT RightHandPinky2
									{
										OFFSET	-2.5791	-4.9057	0.6134
										CHANNELS 3 Zrotation Yrotation Xrotation
										JOINT RightHandPinky3
										{
											OFFSET	-0.8052	-3.7871	1.3188
											CHANNELS 3 Zrotation Yrotation Xrotation
											End Site
											{
												OFFSET -0.2188 -3.8976 1.6089
											}
										}
									}
								}
							}
						}
					}
				}
			}
		}
	}
	JOINT LeftUpLeg
	{
		OFFSET	15.6585	-8.4068	1.4670
		CHANNELS 3 Zrotation Yrotation Xrotation
		JOINT LeftLeg
		{
			OFFSET	4.8126	-36.5793	1.4225
			CHANNELS 3 Zrotation Yrotation Xrotation
			JOINT LeftFoot
			{
				OFFSET	3.3315	-36.9309	-9.3826
				CHANNELS 3 Zrotation Yrotation Xrotation
				JOINT LeftToeBase
				{
					OFFSET	5.8406	-16.0536	19.7570
					CHANNELS 3 Zrotation Yrotation Xrotation
					End Site
					{
						OFFSET 2.6829 1.8767 15.4928
					}
				}
			}
		}
	}
	JOINT RightUpLeg
	{
		OFFSET	-15.6585	-8.4068	1.4670
		CHANNELS 3 Zrotation Yrotation Xrotation
		JOINT RightLeg
		{
			OFFSET	-4.8126	-36.5793	1.4225
			CHANNELS 3 Zrotation Yrotation Xrotation
			JOINT RightFoot
			{
				OFFSET	-3.3315	-36.9309	-9.3826
				CHANNELS 3 Zrotation Yrotation Xrotation
				JOINT RightToeBase
				{
					OFFSET	-5.8406	-16.0536	19.7570
					CHANNELS 3 Zrotation Yrotation Xrotation
					End Site
					{
						OFFSET -2.6829 1.8767 15.4928
					}
				}
			}
		}
	}
}
MOTION
Frames: 8
Frame Time: 0.0333333
-1.3928 98.6958 -1.6424 -1.1972 -0.0510 -0.3793 0.1235 -0.2583 -0.0866 0.0256 -2.0667 -0.4204 0.0272 -2.0605 -0.4245 -1.3394 1.6039 -1.6877 2.2101 -0.6202 9.2690 7.7388 12.1011 0.6085 -45.8438 -11.7324 15.1465 -2.7368 -6.0518 -3.2163 12.1282 -13.2090 43.1581 -12.9100 -14.7900 -3.9621 -6.2433 -5.1968 -2.3415 -3.5527 -0.7580 4.4011 -6.7849 21.9897 25.8366 2.8773 0.0598 -3.0079 2.2230 4.9638 -6.5025 -11.1304 -6.0526 4.3414 -10.6439 -12.3547 -3.9410 -4.8807 -3.0000 1.2734 -15.2292 -24.1671 -12.9175 0.7122 0.1554 -0.2467 -5.9770 -2.7610 -1.5808 -19.4548 -31.1911 -17.6526 0.4298 1.2115 4.8535 0.5848 0.5199 2.3318 -12.0433 -2.4933 0.4722 53.9212 15.0334 16.2825 2.8902 2.5450 -1.1896 -22.2265 3.9282 34.5166 -4.2040 -16.0215 45.5851 -6.5116 5.7999 -15.7727 -2.3759 -4.7028 -9.5488 2.7412 -3.2752 6.7973 15.5254 15.7706 -2.0667 2.4967 1.4832 0.8717 6.4264 6.7273 -0.4911 11.9728 8.4195 -1.4616 -3.3666 -4.9563 3.9055 11.3292 19.2022 -10.4073 2.5011 1.1463 -0.3991 4.2626 -0.1952 -1.9086 14.7749 27.8511 -18.0469 -0.8757 -3.2408 8.6533 -1.0344 -0.6880 2.3969 -2.2285 2.4743 -13.1565 5.7277 10.9594 20.1350 0.2609 1.4308 -6.6034 -0.0000 0.0000 -0.0498 2.2188 -12.2848 -13.5742 -3.2559 -6.7047 16.2344 0.6081 -3.0622 -2.3564 -0.0000 -0.0000 -0.1142 
-1.0035 98.6630 -1.6986 -1.3030 -0.2939 -0.4479 0.1174 -0.2420 -0.0441 -0.0007 -2.0459 -0.3529 0.0023 -2.0401 -0.3564 -1.2601 1.5477 -1.6626 2.3106 -0.6737 9.3533 7.6175 12.0725 0.5980 -45.7373 -12.1282 15.2430 -2.7447 -5.9227 -3.1413 12.0235 -13.0181 43.1647 -13.0468 -14.8601 -3.8968 -6.3449 -5.2554 -2.3291 -3.5071 -0.7341 4.3982 -6.7822 21.9981 25.8489 2.8592 0.0611 -3.0331 2.2225 4.9598 -6.5196 -11.2777 -6.1058 4.4461 -10.7063 -12.4005 -3.9191 -4.9947 -3.0718 1.2947 -15.2983 -24.2262 -12.9222 0.6224 0.1189 -0.2525 -5.9548 -2.7520 -1.5803 -19.7479 -31.3874 -17.6156 0.2351 1.1569 4.8266 0.5841 0.5196 2.3317 -11.8871 -2.3235 0.4670 53.8446 15.0782 16.0271 2.8914 2.4967 -1.1618 -22.2293 3.8892 34.4164 -4.3877 -15.9826 45.8647 -6.3473 5.8275 -16.0522 -2.3776 -4.6767 -9.6809 2.7533 -3.3249 6.8774 15.6929 15.8835 -1.9988 2.4535 1.4556 0.8647 6.8878 6.9840 -0.2929 11.9096 8.3846 -1.4728 -3.4682 -5.0759 3.8957 11.7455 19.3864 -10.1779 2.3602 1.0888 -0.3933 4.1885 -0.2971 -1.9190 15.3716 28.1112 -17.7181 -0.8232 -3.2299 8.6443 -1.2296 -0.7604 2.4217 -2.3852 2.3160 -13.2109 5.7254 10.9898 20.4776 0.5079 1.7866 -6.8780 0.0000 0.0000 -0.0665 2.0796 -12.4628 -13.5732 -3.2324 -6.5438 16.1107 0.8084 -2.8604 -2.0885 0.0000 0.0000 -0.2383 
-0.6051 98.6070 -1.7657 -1.4001 -0.5411 -0.5328 0.1063 -0.2194 0.0108 -0.0330 -2.0246 -0.2655 -0.0283 -2.0194 -0.2682 -1.1734 1.4835 -1.6517 2.4435 -0.7475 9.3938 7.4888 11.9664 0.5850 -45.6717 -12.6913 15.4497 -2.7542 -5.7627 -3.0483 11.9134 -12.7378 43.0841 -13.1417 -14.9143 -3.8595 -6.4788 -5.3325 -2.3127 -3.4729 -0.7163 4.3961 -6.7806 21.9971 25.8367 2.8647 0.0593 -3.0243 2.2202 4.9589 -6.5021 -11.3831 -6.1531 4.5089 -10.8070 -12.4744 -3.8838 -5.1371 -3.1612 1.3214 -15.3431 -24.2683 -12.9308 0.5148 0.0752 -0.2593 -5.9380 -2.7452 -1.5800 -20.0212 -31.5600 -17.5645 0.0264 1.0983 4.7979 0.5841 0.5196 2.3317 -11.6865 -2.0651 0.4625 53.7212 15.2115 15.7608 2.8931 2.4303 -1.1236 -22.2090 3.7702 34.3059 -4.5076 -15.9107 46.1060 -6.2141 5.8492 -16.2798 -2.3796 -4.6561 -9.7920 2.8141 -3.3266 6.9511 15.8608 15.9963 -1.9306 2.3915 1.4159 0.8547 7.0411 7.0429 -0.1902 12.1204 8.5009 -1.4352 -3.5317 -5.1041 3.8965 11.8885 19.4244 -10.0633 2.6090 1.1904 -0.4035 4.1596 -0.3070 -1.9178 15.5933 28.1864 -17.5614 -0.6272 -3.1887 8.6109 -1.2721 -0.7761 2.4271 -2.5635 2.2057 -13.3067 5.7574 11.0136 20.9111 0.7476 2.0934 -7.1852 0.0000 0.0000 -0.0844 1.9209 -12.6414 -13.6271 -3.2229 -6.3801 16.1077 1.0239 -2.6448 -1.8651 -0.0000 -0.0000 -0.2934 
-0.2000 98.5319 -1.8405 -1.4924 -0.7842 -0.6296 0.0876 -0.1902 0.0768 -0.0729 -2.0034 -0.1601 -0.0665 -1.9989 -0.1617 -1.0748 1.4096 -1.6518 2.6245 -0.8487 9.3936 7.3761 11.7693 0.5708 -45.6651 -13.4181 15.7715 -2.7648 -5.5794 -2.9419 11.8074 -12.3835 42.9136 -13.1652 -14.9276 -3.8502 -6.6618 -5.4378 -2.2899 -3.4606 -0.7098 4.3954 -6.7810 21.9843 25.7963 2.9019 0.0547 -2.9711 2.2165 4.9629 -6.4432 -11.4200 -6.1778 4.5197 -10.9701 -12.5937 -3.8262 -5.3205 -3.2764 1.3562 -15.3474 -24.2675 -12.9246 0.3823 0.0214 -0.2677 -5.9318 -2.7427 -1.5799 -20.2399 -31.6689 -17.4747 -0.1943 1.0362 4.7679 0.5848 0.5198 2.3318 -11.4170 -1.6831 0.4613 53.5037 15.4082 15.5107 2.8943 2.3802 -1.0948 -22.1669 3.5676 34.1735 -4.5399 -15.8293 46.2529 -6.1429 5.8598 -16.4023 -2.3812 -4.6457 -9.8559 2.8938 -3.2916 6.9982 16.0434 16.1185 -1.8560 2.3282 1.3753 0.8446 6.8890 6.9172 -0.1990 12.5926 8.7608 -1.3496 -3.5431 -5.0397 3.9070 11.7695 19.3350 -10.0769 3.2196 1.4403 -0.4266 4.1803 -0.2284 -1.9061 15.4583 28.0996 -17.5897 -0.3334 -3.1269 8.5611 -1.1616 -0.7352 2.4130 -2.7607 2.1565 -13.4411 5.8247 11.0271 21.4180 0.9794 2.3415 -7.5164 0.0000 -0.0000 -0.0937 1.7473 -12.8005 -13.7199 -3.2285 -6.2295 16.1966 1.2549 -2.4261 -1.6777 0.0000 0.0000 -0.2831 
0.2097 98.4412 -1.9205 -1.5836 -1.0171 -0.7314 0.0610 -0.1553 0.1516 -0.1208 -1.9837 -0.0406 -0.1124 -1.9801 -0.0407 -0.9630 1.3260 -1.6563 2.8503 -0.9778 9.3555 7.2905 11.4912 0.5565 -45.7224 -14.2833 16.1927 -2.7756 -5.3862 -2.8298 11.7099 -11.9860 42.6645 -13.1095 -14.8843 -3.8556 -6.8999 -5.5747 -2.2598 -3.4750 -0.7173 4.3962 -6.7842 21.9593 25.7300 2.9730 0.0476 -2.8708 2.2125 4.9735 -6.3431 -11.3820 -6.1664 4.4896 -11.2052 -12.7651 -3.7428 -5.5497 -3.4200 1.4001 -15.3080 -24.2091 -12.8857 0.2229 -0.0435 -0.2775 -5.9387 -2.7455 -1.5800 -20.3900 -31.6940 -17.3294 -0.4254 0.9710 4.7366 0.5860 0.5203 2.3320 -11.0682 -1.1650 0.4654 53.1647 15.6517 15.3049 2.8944 2.3788 -1.0940 -22.1120 3.3105 34.0222 -4.4952 -15.7685 46.2804 -6.1426 5.8583 -16.4042 -2.3820 -4.6464 -9.8632 2.9434 -3.2459 6.9959 16.2629 16.2650 -1.7660 2.2888 1.3501 0.8383 6.5152 6.6726 -0.3091 13.2341 9.1121 -1.2300 -3.5009 -4.9107 3.9227 11.4746 19.1772 -10.2009 4.0476 1.7794 -0.4537 4.2390 -0.0947 -1.8885 15.0908 27.9238 -17.7663 0.1672 -3.0209 8.4770 -0.9510 -0.6571 2.3865 -2.9690 2.1658 -13.6131 5.9184 11.0323 21.9834 1.2068 2.5347 -7.8654 0.0000 0.0000 -0.0895 1.5653 -12.9289 -13.8421 -3.2540 -6.1061 16.3527 1.5026 -2.2056 -1.5176 0.0000 0.0000 -0.2132 
0.6217 98.3378 -2.0053 -1.6747 -1.2378 -0.8294 0.0281 -0.1165 0.2321 -0.1755 -1.9678 0.0881 -0.1650 -1.9651 0.0897 -0.8392 1.2347 -1.6568 3.0992 -1.1261 9.2838 7.2332 11.1590 0.5432 -45.8367 -15.2326 16.6731 -2.7856 -5.2011 -2.7225 11.6243 -11.5871 42.3546 -12.9842 -14.7805 -3.8592 -7.1893 -5.7408 -2.2225 -3.5156 -0.7385 4.3987 -6.7904 21.9241 25.6450 3.0737 0.0383 -2.7299 2.2088 4.9910 -6.2090 -11.2752 -6.1071 4.4415 -11.5084 -12.9853 -3.6342 -5.8220 -3.5903 1.4531 -15.2332 -24.0955 -12.8080 0.0390 -0.1183 -0.2887 -5.9588 -2.7536 -1.5804 -20.4823 -31.6440 -17.1300 -0.6647 0.9034 4.7046 0.5869 0.5206 2.3321 -10.6482 -0.5259 0.4767 52.7083 15.9357 15.1615 2.8927 2.4444 -1.1317 -22.0580 3.0475 33.8641 -4.4089 -15.7549 46.1969 -6.2012 5.8462 -16.3060 -2.3815 -4.6553 -9.8207 2.9201 -3.2170 6.9301 16.5365 16.4467 -1.6530 2.2930 1.3528 0.8390 6.0574 6.4058 -0.4888 13.9071 9.4783 -1.1004 -3.4182 -4.7642 3.9377 11.1327 19.0293 -10.3945 4.8886 2.1242 -0.4762 4.3126 0.0445 -1.8716 14.6719 27.7564 -18.0226 0.6765 -2.9123 8.3924 -0.7229 -0.5724 2.3580 -3.1791 2.2166 -13.8234 6.0225 11.0372 22.5928 1.4362 2.6893 -8.2269 -0.0000 -0.0000 -0.0720 1.3813 -13.0332 -13.9954 -3.3034 -6.0163 16.5598 1.7663 -1.9722 -1.3765 0.0000 0.0000 -0.0960 
1.0340 98.2262 -2.0960 -1.7666 -1.4488 -0.9152 -0.0080 -0.0761 0.3155 -0.2344 -1.9571 0.2212 -0.2216 -1.9555 0.2247 -0.7064 1.1395 -1.6453 3.3394 -1.2763 9.1859 7.1991 10.8030 0.5314 -45.9921 -16.1889 17.1532 -2.7937 -5.0433 -2.6311 11.5563 -11.2307 42.0026 -12.8048 -14.6236 -3.8526 -7.5193 -5.9298 -2.1789 -3.5788 -0.7715 4.4027 -6.7990 21.8824 25.5514 3.1948 0.0274 -2.5607 2.2062 5.0145 -6.0513 -11.1063 -5.9907 4.3957 -11.8670 -13.2443 -3.5044 -6.1306 -3.7828 1.5140 -15.1361 -23.9454 -12.7035 -0.1636 -0.2008 -0.3007 -5.9904 -2.7665 -1.5810 -20.5465 -31.5544 -16.8990 -0.9103 0.8338 4.6720 0.5867 0.5206 2.3320 -10.1804 0.1993 0.4962 52.1689 16.2576 15.0804 2.8894 2.5749 -1.2067 -22.0194 2.8247 33.7107 -4.3246 -15.8039 46.0342 -6.2942 5.8275 -16.1500 -2.3795 -4.6678 -9.7465 2.8111 -3.2189 6.8047 16.8622 16.6618 -1.5176 2.3410 1.3835 0.8467 5.6773 6.2232 -0.6913 14.4687 9.7821 -0.9890 -3.3235 -4.6526 3.9468 10.8805 18.9677 -10.6043 5.5444 2.3934 -0.4902 4.3739 0.1395 -1.8612 14.3885 27.6929 -18.2780 1.0829 -2.8251 8.3255 -0.5603 -0.5119 2.3378 -3.3822 2.2863 -14.0678 6.1191 11.0515 23.2244 1.6743 2.8296 -8.5913 0.0000 -0.0000 -0.0441 1.2028 -13.1389 -14.1825 -3.3744 -5.9510 16.7958 2.0402 -1.7105 -1.2400 -0.0000 -0.0000 -0.0001 
1.4450 98.1110 -2.1936 -1.8617 -1.6566 -0.9844 -0.0436 -0.0365 0.3995 -0.2940 -1.9528 0.3551 -0.2789 -1.9520 0.3606 -0.5677 1.0448 -1.6172 3.5413 -1.4072 9.0740 7.1828 10.4437 0.5214 -46.1677 -17.0694 17.5686 -2.7996 -4.9286 -2.5647 11.5124 -10.9520 41.6274 -12.5841 -14.4294 -3.8430 -7.8769 -6.1341 -2.1305 -3.6600 -0.8140 4.4078 -6.8088 21.8394 25.4578 3.3251 0.0151 -2.3785 2.2046 5.0420 -5.8815 -10.8766 -5.8140 4.3581 -12.2644 -13.5296 -3.3589 -6.4672 -3.9923 1.5816 -15.0280 -23.7876 -12.6011 -0.3782 -0.2882 -0.3131 -6.0313 -2.7830 -1.5818 -20.6171 -31.4739 -16.6758 -1.1602 0.7629 4.6391 0.5849 0.5199 2.3318 -9.6954 0.9698 0.5245 51.5972 16.6105 15.0397 2.8846 2.7499 -1.3075 -22.0049 2.6672 33.5653 -4.2787 -15.9156 45.8347 -6.3938 5.8065 -15.9835 -2.3763 -4.6792 -9.6624 2.6436 -3.2450 6.6430 17.2142 16.8926 -1.3701 2.4094 1.4273 0.8576 5.5279 6.2190 -0.8638 14.8112 9.9666 -0.9196 -3.2545 -4.6195 3.9464 10.8326 19.0485 -10.7746 5.8804 2.5313 -0.4962 4.3999 0.1561 -1.8609 14.3906 27.8034 -18.4565 1.3192 -2.7741 8.2869 -0.5203 -0.4970 2.3329 -3.5714 2.3574 -14.3390 6.1987 11.0821 23.8603 1.9224 2.9777 -8.9515 0.0000 0.0000 -0.0079 1.0407 -13.2783 -14.4030 -3.4569 -5.8830 17.0357 2.3145 -1.4155 -1.0918 0.0000 -0.0000 -0.0000 
